<svg xmlns="http://www.w3.org/2000/svg" viewBox="0 0 100 120">
  <path d="M50 14c-13 0-24 11-24 24v4h48v-4c0-13-11-24-24-24Z" fill="#e74c3c" stroke="#050505" stroke-width="5" stroke-linejoin="round"/>
  <path d="M24 51v6c0 9 5 16 13 20-12 4-23 11-27 21-3 7 2 14 10 14h19c4 0 7-2 9-6l2-6 2 6c2 4 5 6 9 6h19c8 0 13-7 10-14-4-10-15-17-27-21 8-4 13-11 13-20v-6Z" fill="#e74c3c" stroke="#050505" stroke-width="5" stroke-linejoin="round"/>
  <rect x="18" y="39" width="64" height="15" rx="6" fill="#050505"/>
  <ellipse cx="40" cy="46" rx="5.5" ry="3.8" fill="#e74c3c"/>
  <ellipse cx="60" cy="46" rx="5.5" ry="3.8" fill="#e74c3c"/>
</svg>
