<svg xmlns="http://www.w3.org/2000/svg" viewBox="0 0 100 120">
  <path d="M50 13c-11 0-21 8-24 21h-4c-4 0-7 3-7 7s3 7 7 7h56c4 0 7-3 7-7s-3-7-7-7h-4C71 21 61 13 50 13Z" fill="#4f6fa8" stroke="#050505" stroke-width="5" stroke-linejoin="round"/>
  <path d="M24 48v9c0 9 5 16 13 20-12 4-23 11-27 21-3 7 2 14 10 14h19c4 0 7-2 9-6l2-6 2 6c2 4 5 6 9 6h19c8 0 13-7 10-14-4-10-15-17-27-21 8-4 13-11 13-20v-9Z" fill="#4f6fa8" stroke="#050505" stroke-width="5" stroke-linejoin="round"/>
  <path d="M20 42h60M39 17v15M61 17v15M45 33a5 5 0 0 1 10 0" fill="none" stroke="#050505" stroke-width="6" stroke-linecap="round"/>
</svg>
